<?xml version="1.0" encoding="iso-8859-1"?>
<!-- Generator: Adobe Illustrator 16.0.0, SVG Export Plug-In . SVG Version: 6.00 Build 0)  -->
<!DOCTYPE svg PUBLIC "-//W3C//DTD SVG 1.1//EN" "http://www.w3.org/Graphics/SVG/1.1/DTD/svg11.dtd">
<svg xmlns="http://www.w3.org/2000/svg" xmlns:xlink="http://www.w3.org/1999/xlink" version="1.1" id="Capa_1" x="0px" y="0px" width="512px" height="512px" viewBox="0 0 612 612" style="enable-background:new 0 0 612 612;" xml:space="preserve">
<g>
	<g>
		<path d="M387.118,500.728c0,0,55.636,0,55.636-55.637V166.909c0-55.637-55.636-55.637-55.636-55.637H55.636    c0,0-55.636,0-55.636,55.637v278.182c0,55.637,55.636,55.637,55.636,55.637H387.118z M27.818,444.562V167.41    c0-28.319,28.124-28.319,28.124-28.319h334.068c0,0,28.124,0,28.124,28.319v277.153c0,28.347-28.124,28.347-28.124,28.347H55.942    C55.942,472.909,27.818,472.909,27.818,444.562z" fill="#3d77aa"/>
		<polygon points="475.162,358.966 475.162,393.043 612,500.728 612,111.272 475.162,219.958 475.162,254.814 584.182,173.029     584.182,440.724   " fill="#3d77aa"/>
	</g>
</g>
</svg>
